<?xml version="1.0" standalone="no"?>
<!DOCTYPE svg PUBLIC "-//W3C//DTD SVG 20010904//EN"
 "http://www.w3.org/TR/2001/REC-SVG-20010904/DTD/svg10.dtd">
<svg version="1.0" xmlns="http://www.w3.org/2000/svg"
 width="2956.000000pt" height="2956.000000pt" viewBox="0 0 2956.000000 2956.000000"
 preserveAspectRatio="xMidYMid meet">
<metadata>
Created by potrace 1.14, written by Peter Selinger 2001-2017
</metadata>
<g transform="translate(0.000000,2956.000000) scale(0.100000,-0.100000)"
fill="#000000" stroke="none">
<path d="M5240 25070 l0 -470 123 0 122 0 0 468 0 467 -122 3 -123 3 0 -471z"/>
<path d="M5670 25070 l0 -471 122 3 122 3 0 168 0 167 207 0 208 0 3 38 c2 20
1 63 0 95 l-4 57 -207 0 -207 0 0 110 1 110 225 2 225 3 2 93 1 92 -349 0
-349 0 0 -470z"/>
<path d="M6470 25070 l0 -470 119 0 c86 0 120 3 123 13 2 6 3 65 3 130 l-2
117 101 1 c127 1 153 4 219 23 162 47 248 211 214 409 -15 82 -71 158 -147
197 -82 42 -127 48 -385 49 l-245 2 0 -471z m480 262 c91 -46 99 -200 13 -258
-22 -14 -52 -19 -138 -22 l-110 -4 0 151 -1 151 101 0 c75 0 109 -4 135 -18z"/>
<path d="M7380 25070 l0 -470 375 0 375 0 0 95 0 95 -253 0 -252 0 0 90 -1 90
221 2 220 3 0 90 1 90 -220 5 -221 5 0 93 -1 92 246 0 245 0 -1 93 0 92 -367
3 -367 2 0 -470z"/>
<path d="M9535 25519 c-233 -61 -390 -258 -401 -504 -4 -107 11 -175 56 -245
55 -86 119 -130 238 -163 79 -22 248 -16 334 12 62 20 173 91 173 110 0 5 -15
27 -34 49 l-33 41 -57 -39 c-122 -83 -289 -93 -419 -26 -93 48 -140 169 -120
306 14 92 56 177 117 238 89 89 181 123 319 118 98 -3 156 -24 208 -74 l30
-31 47 42 c47 41 47 43 31 65 -24 35 -111 86 -174 104 -77 21 -229 20 -315 -3z"/>
<path d="M10547 25530 c-20 -4 -42 -30 -99 -118 -89 -137 -237 -363 -378 -577
-58 -88 -116 -177 -128 -197 l-24 -38 74 0 73 0 35 58 c19 31 50 79 68 105 17
27 32 53 32 58 0 5 10 9 23 10 29 1 414 1 452 0 31 -1 31 -1 59 -116 l28 -115
64 0 c35 0 64 4 64 9 0 11 -64 270 -79 319 -5 17 -8 32 -5 32 3 0 0 8 -5 18
-5 9 -11 31 -14 47 -5 25 -86 348 -118 467 -9 34 -12 36 -52 40 -24 1 -55 1
-70 -2z m53 -262 c16 -62 32 -126 35 -143 3 -16 14 -64 24 -105 l18 -75 -98
-3 c-55 -1 -143 -1 -198 0 l-99 3 142 222 c77 122 142 220 144 218 2 -2 17
-54 32 -117z"/>
<path d="M14635 25524 c-152 -37 -245 -145 -240 -278 4 -117 62 -169 274 -241
133 -46 174 -67 187 -95 26 -62 0 -132 -64 -168 -40 -22 -126 -38 -192 -36
-89 2 -177 32 -260 87 l-26 17 -29 -56 c-33 -62 -36 -56 50 -101 122 -63 335
-80 458 -35 138 50 207 141 204 269 -3 105 -68 165 -237 218 -47 15 -99 33
-117 41 -17 8 -35 14 -40 14 -15 0 -73 61 -74 79 -11 123 87 192 266 185 73
-2 149 -23 201 -55 l31 -19 26 58 27 57 -53 24 c-28 14 -75 30 -102 36 -72 17
-220 16 -290 -1z"/>
<path d="M17608 25528 c-61 -8 -150 -45 -184 -77 -81 -75 -97 -224 -33 -305
44 -56 111 -86 316 -140 152 -39 215 -90 215 -171 0 -128 -159 -194 -360 -149
-69 15 -135 45 -169 77 -13 11 -24 19 -26 16 -17 -23 -37 -60 -37 -69 0 -20
108 -79 182 -100 68 -19 200 -28 253 -16 113 23 187 69 225 136 20 36 25 59
25 115 0 125 -60 182 -243 237 -52 15 -107 30 -121 33 -60 11 -128 43 -164 77
-39 37 -39 38 -35 98 4 49 9 65 34 91 48 51 87 63 204 63 93 0 112 -3 170 -27
96 -42 97 -42 104 -14 3 14 8 31 11 39 4 9 -10 22 -39 36 -91 46 -216 65 -328
50z"/>
<path d="M18545 25525 c-102 -18 -176 -56 -249 -128 -101 -99 -147 -216 -140
-357 4 -86 9 -110 44 -187 34 -76 125 -170 198 -207 58 -29 150 -56 192 -56
23 0 43 -11 76 -42 71 -67 134 -108 193 -124 108 -32 240 3 300 79 12 15 11
21 -9 42 l-23 24 -36 -27 c-51 -39 -85 -52 -139 -52 -54 0 -136 37 -177 80
l-27 28 55 16 c151 44 265 158 310 312 19 64 20 209 2 268 -72 238 -310 376
-570 331z m180 -86 c206 -47 330 -225 303 -433 -42 -318 -434 -442 -670 -213
-142 138 -142 388 1 536 93 97 236 139 366 110z"/>
<path d="M11136 25088 c-48 -244 -90 -453 -93 -465 -5 -22 -2 -23 60 -23 l65
0 7 38 c5 20 9 42 10 47 2 6 14 71 29 145 15 74 28 144 30 155 3 11 16 78 30
149 14 71 28 131 30 134 3 3 10 -8 17 -24 6 -16 19 -49 28 -75 10 -25 23 -58
30 -75 7 -16 45 -108 85 -204 70 -173 72 -175 103 -177 34 -1 31 -5 353 407
105 134 113 142 106 105 -5 -22 -10 -51 -13 -65 -2 -14 -21 -113 -43 -220 -21
-107 -42 -211 -45 -230 -6 -34 -9 -49 -21 -90 -5 -20 -2 -21 62 -18 50 2 68 7
70 18 2 12 19 101 48 245 23 111 73 367 82 415 3 14 10 45 15 70 6 25 14 68
19 95 5 28 11 58 15 68 6 15 0 17 -54 17 l-60 0 -50 -62 c-27 -35 -133 -171
-236 -303 -102 -132 -194 -250 -204 -263 l-18 -22 -25 62 c-15 35 -43 106 -63
158 -20 52 -43 109 -50 125 -7 17 -37 92 -66 167 l-54 138 -55 0 -56 0 -88
-442z"/>
<path d="M12405 25083 c-50 -246 -91 -456 -93 -466 -3 -16 4 -18 64 -15 l68 3
26 132 c15 73 28 135 31 137 2 3 76 6 164 7 234 4 327 30 415 119 73 72 101
148 101 272 0 64 -35 142 -84 183 -72 62 -105 68 -367 73 l-235 4 -90 -449z
m522 319 c84 -27 123 -83 119 -172 -3 -69 -28 -121 -77 -163 -60 -52 -117 -65
-292 -66 l-154 -2 40 203 c22 112 44 206 49 209 14 9 280 2 315 -9z"/>
<path d="M13435 25518 c-3 -7 -14 -60 -25 -118 -12 -58 -23 -116 -26 -130 -68
-334 -74 -420 -35 -505 26 -60 52 -89 107 -121 61 -36 125 -52 209 -52 196 0
320 76 400 243 30 62 80 257 99 387 3 21 10 57 15 80 6 24 13 59 16 78 9 52
23 114 31 133 5 15 -3 17 -63 17 l-70 0 -33 -162 c-18 -90 -34 -174 -37 -188
-65 -362 -131 -456 -324 -468 -67 -4 -84 -1 -131 20 -96 44 -119 102 -104 258
1 19 6 44 9 55 3 11 9 36 12 55 3 19 24 122 46 229 21 106 39 195 39 197 0 2
-29 4 -65 4 -43 0 -67 -4 -70 -12z"/>
<path d="M15580 25455 c0 -41 -1 -203 -1 -360 0 -157 1 -334 1 -394 l0 -108
48 1 47 1 2 140 c1 77 2 143 2 148 1 4 71 7 156 7 173 0 235 10 316 51 99 49
150 134 155 254 6 156 -65 256 -221 310 -40 14 -94 18 -277 21 l-228 4 0 -75z
m423 -19 c137 -18 216 -117 204 -252 -15 -155 -99 -205 -357 -209 -85 -1 -159
2 -165 6 -8 6 -12 378 -6 454 1 11 242 11 324 1z"/>
<path d="M16526 25521 c-1 -3 -2 -213 -2 -466 l1 -460 320 -1 c176 0 325 3
330 7 9 7 11 27 6 72 -1 4 -127 7 -281 7 l-281 0 1 174 2 174 206 0 c114 0
223 1 242 1 35 1 36 2 36 41 l0 40 -243 0 -243 0 0 165 c0 125 3 165 13 166 6
0 128 1 270 1 269 1 260 0 260 43 0 45 15 43 -318 43 -174 0 -317 -3 -319 -7z"/>
<path d="M19346 25521 c-6 -11 1 -618 7 -628 3 -5 9 -24 12 -42 15 -85 87
-179 166 -218 74 -36 110 -43 219 -40 90 2 113 6 160 29 105 51 168 137 190
256 9 50 14 347 11 600 l-1 52 -47 -2 -47 -3 -1 -300 c-2 -320 -5 -357 -37
-414 -55 -99 -127 -136 -262 -133 -128 2 -215 64 -251 179 -17 51 -19 97 -20
363 l-1 305 -47 1 c-26 1 -49 -1 -51 -5z"/>
<path d="M20410 25061 l0 -466 330 0 330 0 0 42 0 43 -280 0 c-260 0 -280 1
-281 18 -1 22 -1 292 0 314 1 15 21 16 204 16 311 0 277 -5 277 42 l0 40 -240
0 c-222 0 -240 1 -241 18 0 9 -1 82 -2 161 -2 126 0 144 15 150 9 3 132 5 272
5 l256 -1 0 42 0 43 -320 0 -320 -1 0 -466z"/>
<path d="M21303 25061 l2 -466 45 0 45 0 3 468 2 467 -50 -1 -50 -2 3 -466z"/>
<path d="M21706 25066 c0 -253 2 -464 3 -467 1 -7 73 -5 86 3 6 4 10 63 9 147
l-1 141 166 0 166 -1 65 -95 c138 -202 135 -199 195 -199 33 -1 51 3 48 9 -4
5 -55 77 -114 160 l-107 150 47 21 c93 44 148 125 160 236 12 118 -27 218
-112 280 -86 63 -155 76 -413 76 l-200 0 2 -461z m415 370 c138 -19 211 -96
212 -226 1 -118 -68 -203 -184 -226 -37 -7 -304 -12 -330 -6 -14 3 -16 31 -16
235 l0 232 135 -1 c75 -1 157 -5 183 -8z"/>
<path d="M22910 25451 c-31 -70 -65 -145 -135 -296 -15 -33 -51 -112 -80 -175
-29 -63 -64 -140 -78 -170 -64 -140 -96 -210 -94 -211 1 -1 23 -2 49 -3 l48
-2 23 50 c13 28 37 80 52 116 16 36 32 70 36 75 5 6 103 10 263 10 l256 0 58
-125 58 -125 52 -1 c29 0 52 0 52 1 0 1 -6 15 -14 31 -12 25 -78 166 -154 334
-11 25 -47 104 -80 175 -33 72 -69 150 -80 175 -11 25 -38 84 -60 131 l-40 86
-49 0 -49 0 -34 -76z m194 -274 c58 -130 106 -241 106 -245 0 -5 -427 -9 -437
-3 -1 0 14 36 33 79 92 201 164 363 175 391 5 13 11 22 14 20 2 -2 51 -111
109 -242z"/>
<path d="M8277 24991 c-2 -3 -3 -22 -3 -41 l1 -35 168 0 c103 0 171 4 176 10
4 5 7 24 7 40 l-1 30 -173 1 c-95 1 -174 -2 -175 -5z"/>
<path d="M7779 23906 c-2 -2 -49 -7 -104 -10 -55 -4 -116 -8 -135 -11 -19 -2
-62 -7 -95 -10 -60 -5 -194 -22 -231 -29 -20 -4 -89 -15 -139 -22 -35 -5 -43
-7 -180 -35 -27 -6 -61 -12 -75 -15 -210 -41 -647 -178 -822 -258 -31 -14 -59
-26 -62 -26 -31 0 -500 -255 -516 -280 -3 -5 -5 -222 -5 -483 l0 -474 -45 13
c-25 7 -63 18 -85 24 -200 57 -422 118 -455 125 -8 2 -51 12 -95 24 -100 25
-278 65 -340 77 -16 3 -61 11 -100 19 -38 8 -90 17 -115 20 l-46 6 -52 -173
c-29 -95 -76 -247 -104 -338 -27 -91 -56 -185 -63 -210 -15 -49 -132 -432
-261 -850 -24 -80 -46 -152 -48 -160 -2 -8 -94 -310 -204 -670 -110 -360 -257
-842 -327 -1070 -70 -228 -165 -539 -212 -690 -46 -151 -86 -282 -88 -290 -1
-8 -24 -82 -49 -165 -26 -82 -58 -188 -72 -235 -14 -47 -30 -98 -36 -115 -5
-16 -23 -75 -39 -130 -17 -55 -39 -128 -50 -162 -29 -97 -60 -196 -64 -213 -4
-13 -79 -258 -175 -570 -32 -105 -228 -748 -283 -930 -20 -63 -85 -277 -145
-475 -149 -484 -384 -1254 -492 -1610 -49 -159 -107 -351 -130 -425 -23 -74
-43 -142 -45 -150 -2 -8 -10 -35 -18 -60 -13 -38 -96 -308 -167 -545 -20 -67
-82 -268 -225 -735 -54 -173 -103 -336 -111 -362 -8 -27 -20 -69 -28 -95 -8
-27 -48 -160 -91 -298 -89 -290 -140 -458 -185 -605 -17 -58 -49 -161 -70
-230 -21 -69 -73 -237 -115 -375 -92 -303 -130 -426 -161 -525 -15 -49 -20
-76 -13 -81 9 -5 124 -25 364 -65 11 -1 85 -14 165 -28 80 -14 161 -28 180
-31 19 -3 87 -15 150 -27 63 -11 124 -21 135 -23 11 -1 36 -5 55 -9 51 -9 90
-16 130 -22 19 -3 80 -14 135 -24 55 -10 118 -21 140 -24 22 -4 47 -8 55 -11
8 -2 35 -6 60 -9 25 -3 56 -8 70 -11 65 -12 77 -15 110 -19 19 -3 46 -8 60
-11 13 -2 40 -7 60 -10 20 -3 47 -8 60 -10 14 -3 54 -10 90 -15 36 -6 76 -13
89 -15 13 -2 45 -7 70 -11 25 -4 55 -8 66 -10 38 -8 140 -24 180 -29 22 -2 51
-7 65 -10 14 -2 46 -7 72 -10 26 -3 62 -7 80 -9 57 -8 121 -16 173 -21 28 -3
68 -8 90 -11 22 -2 69 -7 105 -9 36 -3 92 -8 125 -10 291 -24 976 -24 1840 0
114 3 368 9 880 20 1342 29 2204 23 2730 -20 22 -2 85 -6 140 -10 55 -3 111
-8 125 -10 14 -2 59 -6 100 -10 41 -4 86 -8 100 -10 23 -3 43 -6 170 -20 25
-3 56 -7 70 -10 14 -2 48 -7 75 -10 28 -3 61 -7 75 -10 30 -5 92 -14 140 -21
150 -20 576 -108 840 -174 91 -22 174 -43 186 -45 20 -5 264 -72 359 -100 366
-106 706 -213 1369 -431 241 -80 440 -143 442 -142 1 2 -89 142 -201 312 -136
207 -216 320 -243 341 -416 328 -575 442 -867 617 -192 115 -504 276 -695 358
-41 18 -97 42 -125 54 -27 13 -88 37 -135 55 -47 18 -98 39 -115 46 -161 69
-760 254 -985 304 -19 5 -93 22 -165 39 -71 17 -141 33 -155 36 -14 2 -45 9
-70 15 -51 11 -64 14 -180 36 -47 8 -105 20 -130 25 -25 5 -58 11 -75 14 -16
2 -46 7 -65 10 -65 11 -94 16 -225 36 -147 23 -162 26 -225 35 -25 4 -56 8
-70 10 -14 2 -46 6 -72 9 -26 3 -62 8 -80 11 -18 3 -53 7 -78 9 -25 3 -61 7
-80 10 -19 3 -62 8 -95 11 -33 3 -67 8 -75 10 -8 2 -50 6 -93 10 -43 4 -88 8
-100 10 -35 5 -126 14 -210 21 -43 3 -87 7 -97 9 -11 2 -56 7 -102 10 -46 4
-99 8 -118 10 -19 2 -69 7 -110 10 -41 3 -94 8 -116 10 -23 2 -81 6 -130 10
-49 3 -109 8 -134 10 -57 7 -131 13 -240 20 -47 3 -105 8 -130 10 -25 2 -83 7
-130 10 -47 3 -105 8 -130 10 -25 3 -81 7 -125 11 -44 3 -100 7 -125 9 -25 2
-85 6 -135 10 -49 3 -101 8 -115 10 -14 2 -63 6 -110 10 -98 7 -188 15 -327
30 -27 3 -77 7 -113 10 -36 3 -81 7 -100 10 -19 3 -60 7 -90 10 -105 10 -192
20 -270 30 -19 3 -53 7 -75 9 -68 9 -209 27 -235 31 -14 2 -47 7 -75 11 -27 3
-57 8 -65 9 -8 2 -51 8 -95 15 -79 11 -106 16 -155 24 -14 3 -65 12 -115 21
-137 23 -138 23 -320 61 -93 19 -181 38 -194 40 -14 3 -28 7 -31 9 -4 2 -22 7
-41 10 -88 15 -370 93 -552 152 -70 22 -78 28 -74 47 3 11 39 131 80 266 95
309 321 1059 352 1165 13 44 75 251 139 460 63 209 131 434 151 500 20 66 45
147 55 180 10 33 30 98 44 145 40 131 224 743 256 850 74 250 113 377 155 515
25 83 48 157 50 165 4 17 86 288 235 780 56 184 106 351 112 370 12 43 66 221
270 895 88 292 166 550 173 575 7 25 35 119 63 210 27 91 55 181 60 200 13 46
206 681 226 745 8 28 36 120 61 205 26 85 62 205 80 265 19 61 45 148 59 195
13 47 55 184 91 305 37 121 73 240 80 265 7 25 31 104 53 175 22 72 45 146 50
165 6 19 20 67 32 105 12 39 23 77 25 85 17 64 156 513 161 521 3 6 19 7 36 4
17 -4 38 -8 47 -10 14 -2 16 -23 16 -176 0 -169 4 -199 27 -199 10 0 452 -153
493 -170 11 -5 126 -46 255 -90 228 -80 376 -132 760 -267 102 -36 190 -65
196 -66 6 0 57 29 115 65 243 153 569 327 760 406 l76 31 154 -24 c85 -14 168
-27 184 -30 78 -11 464 -72 510 -81 17 -3 50 -8 75 -10 25 -3 50 -10 55 -15
16 -15 15 -267 -1 -350 -21 -113 -65 -236 -107 -304 -148 -238 -387 -403 -741
-511 -231 -70 -466 -109 -841 -139 -76 -6 -454 -17 -645 -19 l-145 -1 -3
-1046 -2 -1047 552 -1 c515 0 687 -4 813 -16 590 -58 1034 -240 1334 -545 160
-163 291 -398 337 -605 31 -137 40 -394 19 -515 -16 -95 -60 -251 -96 -339
-43 -109 -139 -289 -166 -313 -27 -24 -70 -29 -258 -33 -204 -3 -309 9 -586
70 -37 8 -171 49 -264 81 -293 102 -703 309 -1022 518 l-100 65 -179 -58 c-98
-32 -321 -105 -494 -161 -173 -56 -387 -126 -475 -155 -88 -29 -254 -83 -370
-120 -115 -37 -212 -71 -215 -76 -4 -6 -5 -2679 -1 -2701 2 -10 579 -198 931
-302 173 -51 461 -125 655 -169 238 -54 215 -49 465 -91 146 -25 208 -33 310
-42 30 -3 66 -7 80 -9 108 -19 611 -26 770 -12 103 9 169 16 205 22 17 3 48 7
70 10 22 4 51 8 65 11 14 2 41 7 60 10 19 3 69 11 110 19 41 7 100 16 130 20
30 3 69 8 85 10 17 2 45 4 63 4 18 1 39 9 47 18 8 10 155 200 326 423 171 223
322 419 334 435 33 41 194 251 229 298 16 20 30 52 32 70 8 73 16 124 25 167
37 167 150 488 238 673 28 60 51 111 51 114 0 9 227 458 259 511 17 29 31 55
31 57 0 10 108 186 206 335 128 195 330 449 448 564 222 214 648 534 865 648
59 31 126 98 301 300 28 33 35 30 46 -19 4 -21 8 -41 9 -45 2 -5 3 -14 4 -20
4 -38 16 -40 97 -24 44 9 88 18 99 20 125 26 587 118 609 122 16 3 32 6 35 8
3 2 28 7 55 10 27 4 53 9 56 11 4 2 33 9 66 14 54 9 75 13 129 25 11 3 125 57
254 121 569 283 937 433 1529 621 10 3 11 19 7 66 -4 35 -8 65 -10 68 -9 15
-19 190 -19 360 -1 262 11 403 54 610 6 30 13 66 16 80 23 129 128 436 202
594 97 208 81 189 268 309 144 91 380 237 441 272 287 163 500 267 688 335 50
17 99 36 110 40 22 10 240 80 265 85 8 2 31 9 50 15 29 9 213 60 270 75 87 22
301 75 320 79 14 2 77 16 140 31 118 27 376 83 420 91 14 3 32 7 40 9 8 3 32
7 54 11 21 3 48 8 60 10 23 5 419 82 451 88 11 2 103 18 204 36 l184 33 116
-57 c540 -267 971 -663 1279 -1175 99 -166 214 -412 267 -575 48 -148 73 -239
91 -331 2 -11 6 -31 9 -45 12 -55 25 -127 30 -170 3 -25 8 -63 10 -85 24 -182
26 -439 5 -650 -7 -71 -14 -133 -16 -136 -1 -3 -6 -28 -9 -55 -4 -27 -13 -76
-20 -109 -8 -33 -16 -71 -18 -85 -30 -167 -146 -480 -255 -690 -35 -69 -70
-135 -76 -147 -6 -13 -14 -23 -18 -23 -5 0 -8 -5 -8 -11 0 -19 -131 -209 -231
-335 -124 -155 -299 -332 -449 -452 -63 -51 -120 -97 -127 -102 -35 -29 -250
-165 -328 -207 -331 -183 -704 -304 -1080 -352 -263 -34 -565 -30 -835 10
-241 35 -598 138 -760 219 l-35 18 -136 -82 c-75 -45 -170 -107 -210 -136
-262 -192 -529 -457 -716 -710 -63 -86 -403 -605 -403 -616 0 -3 -5 -10 -10
-17 -33 -37 -138 -212 -133 -220 3 -6 1 -7 -6 -3 -7 5 -15 -4 -22 -23 -6 -17
-14 -31 -18 -31 -4 0 -13 -11 -19 -25 -7 -14 -17 -31 -22 -38 -40 -46 -296
-475 -288 -482 2 -1 71 -42 153 -90 197 -116 480 -259 685 -348 25 -10 54 -23
65 -28 204 -90 650 -235 915 -298 164 -39 202 -47 255 -55 20 -4 40 -8 44 -10
3 -2 26 -7 51 -10 25 -3 56 -8 70 -11 33 -6 214 -33 265 -39 301 -36 404 -41
770 -41 288 0 463 6 570 20 17 2 62 7 100 10 90 8 117 12 365 50 33 5 66 12
180 35 52 10 106 21 120 23 14 3 63 15 110 27 47 12 92 23 100 25 8 1 40 10
70 18 562 155 1047 362 1530 651 74 45 140 83 145 86 24 11 290 194 367 252
120 89 279 217 342 273 6 6 45 39 86 75 243 212 555 541 740 780 19 25 37 47
40 50 4 3 37 48 75 100 38 52 72 97 75 100 4 3 15 20 25 38 11 17 23 32 27 32
4 0 8 4 8 9 0 5 24 45 54 88 156 227 367 610 505 915 77 171 258 658 245 658
-3 0 0 8 5 19 22 41 137 490 155 605 4 21 8 41 10 45 2 3 7 22 10 41 14 90 37
238 41 260 6 38 23 186 31 265 3 39 8 84 10 100 34 289 17 998 -31 1295 -2 14
-7 48 -10 75 -3 28 -10 75 -15 105 -5 30 -12 71 -15 90 -3 19 -10 58 -15 85
-6 28 -13 61 -15 75 -3 14 -8 39 -11 55 -6 33 -40 180 -54 235 -146 552 -342
1048 -584 1474 -31 54 -56 100 -56 102 0 1 -40 67 -89 146 -49 79 -88 144 -86
146 2 2 20 7 75 18 13 3 56 12 95 20 38 9 80 17 92 20 18 3 24 -1 29 -23 3
-16 17 -62 30 -104 14 -41 26 -84 29 -95 2 -10 27 -91 54 -179 76 -245 323
-1051 387 -1265 19 -63 52 -171 74 -240 42 -133 173 -563 315 -1030 47 -157
90 -296 95 -310 5 -14 23 -72 40 -130 18 -58 47 -154 66 -215 126 -410 280
-915 304 -995 16 -52 65 -214 110 -360 45 -146 94 -308 110 -360 15 -52 52
-169 80 -260 29 -91 54 -174 57 -185 3 -11 39 -128 80 -260 41 -132 76 -247
77 -255 2 -8 27 -89 55 -180 27 -91 93 -307 146 -480 53 -173 116 -380 141
-460 25 -80 58 -190 75 -245 17 -55 41 -134 54 -175 13 -41 30 -97 38 -125 8
-27 41 -133 72 -235 31 -102 83 -270 115 -375 32 -104 81 -266 110 -360 29
-93 58 -190 65 -215 7 -25 49 -164 94 -310 113 -365 145 -471 187 -607 19 -65
48 -158 64 -206 l28 -88 -24 -9 c-23 -9 -321 -88 -358 -96 -10 -2 -55 -12
-100 -23 -286 -71 -717 -154 -1061 -206 -93 -14 -181 -28 -195 -30 -14 -2 -47
-7 -75 -10 -27 -4 -61 -8 -75 -10 -14 -3 -83 -11 -155 -20 -71 -9 -143 -18
-160 -20 -39 -5 -104 -12 -190 -21 -38 -3 -79 -8 -90 -10 -11 -2 -54 -6 -95
-9 -41 -3 -91 -8 -110 -10 -42 -5 -113 -12 -200 -20 -103 -8 -171 -14 -230
-19 -142 -13 -180 -16 -245 -21 -79 -6 -172 -13 -260 -20 -33 -3 -94 -7 -135
-10 -80 -6 -148 -12 -245 -20 -109 -9 -169 -14 -260 -20 -49 -4 -106 -8 -125
-11 -19 -2 -69 -6 -110 -9 -41 -3 -93 -7 -115 -9 -22 -2 -74 -7 -115 -11 -78
-6 -116 -10 -210 -20 -30 -3 -77 -7 -105 -10 -83 -7 -228 -23 -460 -50 -69 -9
-221 -29 -295 -40 -14 -2 -63 -9 -110 -15 -47 -6 -96 -13 -109 -15 -13 -2 -45
-7 -70 -11 -25 -4 -55 -8 -66 -10 -11 -2 -63 -11 -115 -20 -52 -9 -104 -18
-115 -20 -11 -2 -33 -7 -50 -10 -16 -3 -64 -12 -105 -21 -41 -8 -84 -17 -95
-19 -43 -8 -65 -13 -195 -44 -74 -17 -146 -33 -159 -36 -14 -3 -28 -7 -31 -9
-4 -2 -20 -6 -36 -9 -117 -21 -851 -240 -959 -286 -11 -5 -96 -36 -190 -71
-158 -57 -406 -158 -535 -215 -167 -76 -230 -106 -380 -182 -157 -80 -354
-188 -430 -237 -381 -241 -575 -390 -800 -615 -156 -155 -185 -188 -284 -320
-70 -94 -175 -261 -192 -304 -6 -14 -2 -16 22 -10 16 4 34 10 39 14 6 4 24 10
40 14 45 11 357 128 560 211 99 40 288 117 420 170 132 53 249 101 260 106
116 51 502 184 690 238 83 24 250 68 285 75 14 3 52 12 85 20 175 42 600 119
825 150 80 11 136 19 153 22 10 2 45 6 78 9 33 4 69 8 80 10 11 2 50 7 87 10
37 3 78 8 92 10 14 3 54 7 90 10 72 6 142 13 210 20 40 4 123 10 275 20 50 4
207 13 340 20 471 26 1464 26 2435 0 140 -4 259 -7 855 -21 543 -14 1548 -8
1885 11 159 9 267 16 310 20 25 2 79 7 120 10 41 3 91 8 110 10 19 2 62 7 95
10 74 7 108 11 210 25 44 6 96 13 115 16 83 10 189 26 235 34 28 5 66 11 85
14 19 3 87 14 150 25 63 11 133 23 155 27 22 3 43 8 46 10 3 1 30 6 59 9 30 4
57 8 60 10 3 2 71 15 150 29 157 28 160 29 270 51 41 8 90 17 108 20 64 10 98
16 137 25 22 4 62 11 88 14 26 4 71 11 100 16 59 12 339 56 407 65 25 3 54 8
65 10 11 2 28 4 39 4 13 1 16 6 12 18 -4 9 -22 69 -41 132 -19 64 -71 235
-115 381 -45 146 -84 274 -87 285 -3 11 -30 101 -60 200 -30 99 -67 223 -83
275 -16 52 -40 133 -54 180 -15 47 -29 92 -31 100 -8 30 -32 108 -260 860 -48
157 -91 299 -95 315 -5 17 -18 62 -30 100 -12 39 -34 113 -50 165 -15 52 -67
223 -115 380 -48 157 -88 290 -89 295 -1 6 -14 48 -29 95 -27 84 -173 567
-227 750 -29 96 -105 350 -290 960 -108 353 -123 403 -164 540 -14 47 -53 175
-86 285 -34 110 -63 207 -65 215 -2 8 -29 98 -60 200 -31 102 -63 205 -70 230
-7 25 -37 122 -65 215 -95 313 -181 596 -242 800 -16 55 -38 127 -48 160 -58
193 -93 308 -111 370 -12 39 -25 81 -30 95 -12 36 -119 389 -129 425 -4 17
-31 107 -60 200 -29 94 -65 213 -80 265 -16 52 -45 149 -65 215 -111 364 -306
1020 -335 1130 -5 17 -23 77 -40 135 -17 58 -35 119 -40 135 -5 17 -20 71 -35
120 -25 84 -40 134 -131 435 -99 325 -320 1004 -343 1055 -6 11 -20 49 -32 85
-98 291 -277 690 -338 753 -19 20 -7 21 -196 -24 -49 -11 -97 -22 -106 -24
-45 -9 -317 -83 -499 -136 -318 -93 -344 -101 -685 -203 -304 -92 -559 -165
-653 -189 l-42 -10 -78 74 c-70 68 -141 132 -218 200 -137 119 -422 335 -574
435 -41 27 -79 53 -85 57 -15 12 -228 142 -245 150 -8 4 -31 17 -50 29 -183
112 -548 286 -835 397 -277 108 -649 221 -870 265 -11 3 -56 12 -100 21 -44 9
-89 19 -100 21 -11 2 -60 11 -110 19 -49 8 -99 17 -111 19 -11 2 -45 7 -75 11
-30 3 -67 8 -84 10 -16 2 -57 7 -90 10 -33 4 -73 8 -90 10 -16 2 -66 6 -110
10 -44 3 -114 8 -155 11 -90 6 -583 7 -660 0 -30 -3 -93 -7 -140 -11 -108 -8
-165 -13 -215 -19 -22 -3 -62 -8 -90 -11 -27 -4 -63 -9 -80 -11 -48 -8 -77
-12 -125 -19 -63 -9 -343 -64 -415 -81 -33 -8 -71 -17 -84 -20 -41 -8 -231
-62 -321 -89 -47 -15 -101 -31 -120 -37 -42 -12 -322 -114 -365 -133 -16 -7
-82 -34 -145 -61 -165 -69 -485 -230 -657 -330 -554 -323 -1070 -743 -1483
-1204 -47 -52 -91 -101 -98 -108 -42 -46 -193 -236 -275 -347 -53 -71 -100
-134 -104 -140 -31 -37 -293 -450 -293 -460 0 -1 -25 -47 -56 -101 -76 -134
-211 -412 -274 -564 -28 -69 -55 -134 -61 -145 -5 -11 -19 -49 -32 -83 -20
-55 -26 -62 -38 -50 -37 35 -134 112 -234 186 -60 45 -114 85 -120 90 -50 37
-226 152 -233 152 -27 0 -33 35 -37 216 -2 104 -6 207 -9 229 -14 93 -17 113
-27 170 -39 226 -93 369 -275 730 -241 477 -295 580 -306 577 -5 -1 -7 2 -3 8
3 5 -29 79 -72 162 -192 376 -406 626 -781 912 -40 31 -75 56 -77 56 -3 0 -27
15 -53 33 -141 99 -380 225 -587 311 -77 32 -149 62 -160 67 -102 45 -522 166
-710 204 -44 9 -89 19 -100 21 -45 9 -254 43 -304 49 -30 4 -62 8 -72 10 -10
2 -46 6 -81 10 -35 3 -81 8 -103 11 -22 2 -65 7 -95 10 -63 6 -815 15 -821 10z
m4771 -4446 c139 -69 344 -182 362 -199 4 -3 0 -29 -8 -56 -8 -28 -18 -61 -20
-75 -3 -14 -11 -47 -19 -75 -19 -64 -72 -310 -80 -367 -3 -24 -8 -50 -10 -58
-2 -8 -6 -31 -9 -50 -3 -19 -12 -78 -20 -130 -14 -93 -18 -121 -32 -245 -21
-193 -29 -364 -29 -660 0 -250 8 -463 20 -565 10 -76 17 -147 20 -180 2 -19 6
-55 9 -80 6 -41 2 -36 -50 64 -30 61 -64 122 -75 137 -10 15 -19 30 -19 34 0
12 -84 131 -146 205 -188 227 -444 406 -787 550 -54 22 -217 81 -362 130 -266
90 -365 132 -398 167 -17 20 -16 21 40 37 298 90 544 237 763 456 115 115 141
144 219 249 151 205 278 449 357 691 19 58 37 110 39 117 5 16 35 4 235 -97z"/>
<path d="M16659 18316 c-2 -2 -22 -7 -43 -10 -63 -10 -88 -18 -150 -47 -164
-78 -270 -227 -302 -429 -12 -74 -11 -1150 1 -1151 5 0 112 -1 238 -2 221 -2
227 -1 228 18 0 11 1 97 2 190 l2 170 60 2 c33 1 63 2 68 2 4 1 7 96 7 211 0
161 -3 210 -12 211 -7 1 -39 1 -70 1 l-57 0 3 136 c2 75 8 148 13 162 32 77
136 91 180 23 17 -25 18 -64 19 -568 0 -298 3 -545 6 -551 6 -10 448 -12 464
-2 5 4 9 226 8 550 -1 486 -6 677 -21 701 -2 4 -6 20 -9 35 -8 46 -71 165
-111 208 -46 49 -107 85 -193 115 -51 17 -94 22 -196 25 -72 2 -133 2 -135 0z"/>
<path d="M18030 18305 c-171 -35 -308 -138 -383 -288 -63 -126 -65 -148 -66
-774 -1 -558 -1 -563 19 -564 11 0 112 -1 225 -1 113 0 211 1 218 1 10 1 13
111 13 539 0 491 2 540 18 574 25 52 75 68 136 44 22 -9 39 -40 46 -83 4 -21
7 -271 7 -555 0 -363 4 -518 11 -519 15 -1 415 -1 444 0 l23 1 -1 568 c-1 524
-3 574 -21 652 -50 219 -187 364 -381 404 -83 17 -227 18 -308 1z"/>
<path d="M19688 18315 c-1 -1 -26 -5 -53 -9 -107 -12 -257 -75 -355 -148 -262
-196 -378 -475 -336 -808 22 -170 101 -325 235 -460 113 -113 205 -171 340
-214 138 -44 363 -52 455 -16 14 5 26 7 26 5 0 -9 133 45 189 77 160 90 302
251 370 420 42 103 55 178 55 313 1 142 -13 215 -59 325 -62 149 -173 285
-308 378 -72 50 -191 106 -244 116 -15 2 -50 9 -78 14 -45 9 -228 15 -237 7z
m197 -485 c77 -25 163 -99 201 -172 27 -53 36 -90 40 -164 6 -141 -54 -258
-170 -332 -52 -33 -88 -43 -167 -47 -104 -6 -187 28 -264 110 -82 88 -119 218
-93 329 6 23 11 46 12 51 6 30 42 87 79 126 57 60 68 68 132 93 62 26 162 28
230 6z"/>
<path d="M21270 18304 c-154 -41 -292 -157 -359 -299 -25 -54 -34 -78 -47
-140 -9 -39 -5 -181 6 -230 18 -81 46 -155 89 -236 79 -148 85 -196 30 -249
-47 -44 -115 -52 -181 -20 -23 11 -42 20 -43 20 -5 0 1 -459 5 -462 12 -10 98
-38 133 -43 292 -46 569 133 642 414 39 152 11 300 -95 491 -54 96 -63 125
-58 178 5 56 35 96 83 112 28 9 48 9 108 -3 9 -1 12 60 12 225 l1 227 -31 7
c-16 4 -37 10 -45 12 -43 12 -200 9 -250 -4z"/>
<path d="M13670 15802 c-79 -9 -189 -36 -238 -59 -405 -189 -542 -658 -305
-1041 16 -27 19 -41 13 -75 -5 -23 -11 -67 -15 -97 -4 -30 -9 -58 -12 -63 -11
-18 29 -15 122 8 l99 24 41 -23 c261 -149 612 -104 828 106 109 107 167 204
202 344 19 73 24 196 12 279 -35 252 -236 487 -482 562 -96 30 -197 43 -265
35z"/>
<path d="M14195 14427 c-8 -11 -13 -23 -11 -26 2 -3 49 -148 106 -321 56 -173
113 -350 127 -392 27 -84 42 -103 72 -93 32 10 33 35 2 129 -36 108 -147 450
-192 591 -17 55 -38 107 -45 116 -19 21 -42 20 -59 -4z"/>
<path d="M12676 14338 c-27 -33 -199 -231 -211 -244 -6 -6 -27 -30 -46 -53
-18 -23 -49 -58 -66 -78 -36 -39 -39 -48 -21 -59 10 -7 28 10 131 126 18 20
44 51 58 70 15 19 40 49 55 65 16 17 49 55 74 84 25 29 51 60 58 67 14 14 10
44 -5 44 -5 0 -17 -10 -27 -22z"/>
<path d="M12944 14343 c-10 -10 -46 -49 -79 -88 -33 -38 -62 -72 -65 -75 -5
-5 -159 -183 -206 -240 -33 -38 -158 -183 -169 -196 -190 -212 -315 -366 -315
-388 0 -64 65 -74 115 -18 46 52 240 276 300 346 28 33 55 64 60 70 11 12 143
164 179 206 12 14 79 92 149 173 134 156 147 182 105 211 -29 21 -50 20 -74
-1z"/>
<path d="M14338 14298 c34 -112 96 -295 103 -302 24 -26 16 17 -32 163 -31 97
-57 161 -64 161 -9 0 -11 -7 -7 -22z"/>
<path d="M14642 13518 c-306 -35 -563 -277 -608 -574 -26 -166 16 -371 99
-488 20 -28 24 -66 12 -126 -2 -12 -7 -47 -11 -76 -7 -64 -13 -62 113 -31 l92
23 58 -29 c142 -72 285 -96 428 -71 280 49 488 237 563 510 24 86 26 234 6
324 -79 343 -408 578 -752 538z"/>
<path d="M11598 13235 c-2 -1 -22 -5 -45 -9 -450 -61 -841 -419 -947 -866 -25
-105 -27 -120 -31 -240 -3 -121 6 -218 31 -310 8 -30 17 -62 19 -70 17 -70 87
-215 136 -287 l31 -45 -12 -101 c-7 -56 -14 -111 -16 -122 -2 -11 -6 -41 -9
-66 -3 -25 -7 -55 -10 -67 -2 -12 -2 -22 1 -22 3 0 62 14 132 30 70 17 134 32
142 34 8 1 32 6 53 11 23 4 42 3 50 -3 29 -24 177 -91 257 -116 125 -40 246
-56 385 -51 66 2 131 6 145 9 14 3 34 8 45 10 352 72 653 305 808 627 82 169
117 328 115 519 -3 343 -154 655 -428 885 -58 49 -191 128 -265 158 -39 16
-79 33 -90 37 -22 9 -34 12 -140 36 -59 14 -346 29 -357 19z"/>
<path d="M13469 12626 c-2 -2 -26 -7 -54 -10 -124 -16 -332 -47 -348 -52 -18
-6 -18 -31 -1 -27 5 0 32 4 59 7 48 5 103 13 155 21 14 3 61 9 105 15 147 20
160 24 150 41 -6 9 -57 13 -66 5z"/>
<path d="M13978 12535 c-2 -1 -23 -5 -48 -9 -25 -3 -60 -8 -78 -10 -42 -7 -91
-13 -177 -26 -38 -5 -79 -12 -90 -14 -11 -2 -47 -7 -80 -10 -33 -4 -67 -9 -75
-11 -8 -2 -37 -6 -65 -10 -49 -6 -121 -16 -350 -51 -74 -11 -83 -15 -90 -41
-9 -39 19 -65 64 -58 20 3 52 8 71 10 59 8 94 13 125 18 17 3 53 8 80 12 28 3
77 10 110 15 33 5 78 12 100 15 22 3 69 10 105 15 36 5 83 12 105 15 23 3 52
7 65 10 13 2 44 7 69 10 25 3 57 7 70 10 12 2 44 7 69 10 60 7 87 32 73 67 -8
21 -42 43 -53 33z"/>
<path d="M15072 12193 c-8 -16 69 -210 241 -600 9 -21 30 -72 47 -113 17 -41
41 -83 52 -93 21 -17 22 -17 41 2 20 19 19 20 -27 133 -26 62 -68 160 -93 218
-25 58 -51 119 -58 135 -24 58 -47 111 -94 220 -42 96 -51 110 -74 113 -17 2
-29 -3 -35 -15z"/>
<path d="M15380 11907 c0 -7 29 -81 65 -164 36 -83 65 -156 65 -161 0 -15 18
-25 30 -17 6 4 6 13 1 23 -5 9 -17 35 -26 57 -9 22 -25 58 -35 80 -10 22 -33
75 -50 118 -29 70 -50 97 -50 64z"/>
<path d="M13049 11595 c-55 -30 -40 -93 29 -122 20 -8 84 -37 142 -63 137 -62
109 -50 745 -333 303 -135 580 -258 616 -275 94 -43 127 -45 164 -8 21 21 23
29 14 54 -11 33 -14 34 -404 208 -315 140 -608 270 -670 298 -279 127 -558
247 -581 251 -16 3 -41 -2 -55 -10z"/>
<path d="M15634 11319 c-291 -34 -521 -233 -599 -519 -18 -68 -24 -212 -11
-288 12 -69 51 -177 84 -231 22 -34 30 -58 26 -78 -10 -69 -14 -91 -20 -146
-6 -57 -6 -57 18 -48 13 5 60 16 106 26 l82 16 57 -30 c129 -68 290 -100 408
-80 22 4 57 10 79 13 99 16 249 100 334 189 70 72 87 95 126 173 58 114 75
196 72 332 -4 145 -26 223 -101 347 -101 169 -299 299 -488 320 -97 11 -112
11 -173 4z"/>
<path d="M13606 11013 c-16 -16 -2 -34 38 -53 25 -11 47 -20 50 -20 2 0 40
-16 83 -36 43 -20 116 -53 163 -74 47 -21 114 -51 150 -68 215 -98 270 -115
270 -82 0 11 -45 33 -285 140 -77 34 -205 92 -285 127 -150 67 -174 76 -184
66z"/>
<path d="M12526 10954 c-9 -8 -16 -24 -16 -34 0 -21 481 -1149 506 -1188 21
-32 73 -27 92 8 14 24 4 49 -163 440 -98 228 -212 494 -252 590 -41 96 -82
181 -91 188 -22 17 -57 15 -76 -4z"/>
<path d="M12555 10342 c-13 -8 -12 -18 2 -52 209 -490 216 -506 234 -494 14 8
4 44 -32 122 -16 35 -29 65 -29 68 0 2 -15 37 -34 77 -18 40 -37 83 -41 96 -9
30 -83 191 -87 191 -2 0 -8 -4 -13 -8z"/>
<path d="M14810 9843 c-63 -47 -128 -96 -145 -109 -36 -29 -24 -20 -155 -117
-58 -43 -112 -84 -120 -90 -8 -7 -43 -34 -77 -60 -62 -47 -75 -71 -51 -95 17
-17 44 -15 67 5 11 9 161 123 333 252 183 139 314 244 317 256 3 18 -23 45
-43 45 -6 -1 -63 -39 -126 -87z"/>
<path d="M14570 9520 c-156 -117 -144 -106 -136 -119 4 -6 60 30 134 86 152
115 157 119 144 127 -5 3 -69 -39 -142 -94z"/>
<path d="M13413 9575 c-206 -36 -378 -156 -489 -340 -122 -202 -127 -490 -12
-690 53 -93 52 -86 37 -205 -8 -60 -12 -110 -8 -110 3 0 52 11 108 25 84 21
105 23 124 13 12 -7 24 -13 27 -13 3 0 21 -9 40 -20 55 -29 194 -62 276 -64
98 -3 221 23 310 64 90 41 132 70 201 136 228 220 281 560 131 843 -34 65 -43
78 -108 149 -92 101 -240 184 -380 213 -60 12 -182 12 -257 -1z"/>
<path d="M1654 8326 c-3 -10 -89 -381 -98 -431 -8 -35 -106 -458 -116 -500 -6
-22 -13 -49 -15 -60 -9 -47 -167 -729 -190 -822 -14 -56 -25 -109 -25 -116 0
-10 25 -18 88 -27 48 -6 94 -13 102 -15 8 -1 42 -5 75 -9 94 -11 127 -15 163
-21 18 -3 54 -7 80 -10 63 -7 220 -25 257 -30 17 -2 55 -6 85 -9 30 -3 100
-10 155 -16 116 -12 167 -16 285 -25 47 -4 105 -8 130 -10 25 -3 99 -7 165
-11 66 -3 140 -8 165 -9 384 -26 1341 -26 1770 0 41 3 116 7 165 9 86 5 167
10 320 21 224 16 328 24 385 30 25 2 77 7 115 10 39 3 86 7 105 10 19 2 69 7
110 10 41 3 89 7 105 10 17 2 68 6 115 9 47 4 96 9 110 11 14 2 59 7 100 11
41 4 86 8 100 9 14 1 59 6 100 9 41 4 91 9 110 11 40 5 109 12 190 20 57 5
101 10 205 21 33 3 76 7 95 9 46 4 156 15 200 20 19 2 67 7 105 10 39 4 81 8
95 10 14 2 61 6 105 10 44 3 96 8 115 10 19 3 62 7 95 10 33 3 78 8 100 10 51
5 115 11 348 30 34 3 87 8 117 10 89 8 150 13 235 20 44 3 100 8 125 10 25 2
90 7 145 10 55 3 120 8 145 10 39 3 148 10 355 20 432 22 1134 22 1385 0 19
-1 76 -6 125 -9 50 -4 110 -9 135 -11 192 -19 258 -26 280 -29 14 -3 66 -9
115 -15 143 -18 478 -72 645 -105 14 -3 36 -7 50 -10 67 -13 139 -28 295 -61
94 -21 177 -38 185 -40 36 -8 366 -87 480 -115 69 -18 132 -33 140 -35 38 -9
391 -101 645 -169 154 -41 281 -74 282 -72 2 1 -28 49 -66 105 -139 207 -243
323 -371 412 -66 46 -104 69 -260 151 -47 25 -119 64 -160 86 -41 21 -93 50
-115 62 -22 13 -65 36 -95 53 -30 16 -59 33 -65 37 -33 24 -385 204 -515 263
-350 159 -838 329 -1180 412 -8 2 -53 14 -100 25 -47 12 -92 23 -100 25 -8 2
-45 10 -81 19 -37 8 -78 17 -90 20 -13 2 -60 12 -104 21 -44 9 -91 19 -105 21
-14 2 -36 7 -50 9 -14 3 -37 8 -52 10 -31 5 -43 8 -138 25 -92 16 -107 18
-159 25 -25 4 -84 13 -131 20 -47 7 -105 16 -130 19 -39 4 -206 24 -350 42
-25 3 -58 7 -75 9 -16 3 -58 7 -92 9 -34 3 -81 7 -105 10 -24 3 -74 8 -113 11
-38 3 -88 8 -110 10 -76 7 -170 15 -230 20 -33 2 -94 7 -135 11 -41 4 -93 8
-115 9 -76 5 -220 15 -275 20 -30 3 -100 7 -155 10 -55 3 -127 7 -160 9 -33 3
-123 7 -200 10 -568 24 -844 32 -1415 41 -195 3 -499 8 -675 10 -681 11 -1051
19 -1315 30 -343 14 -464 20 -640 30 -78 5 -115 7 -300 21 -97 7 -189 14 -240
19 -25 3 -76 7 -115 10 -38 3 -90 8 -115 10 -25 3 -66 7 -92 10 -109 11 -153
16 -348 41 -113 14 -221 28 -240 30 -19 2 -60 9 -90 14 -30 5 -72 12 -92 14
-21 3 -53 8 -70 11 -18 3 -44 7 -58 9 -68 11 -109 18 -150 26 -25 5 -58 11
-75 14 -16 2 -66 11 -110 20 -44 8 -91 17 -105 20 -14 3 -47 9 -73 14 -35 7
-50 6 -53 -2z"/>
<path d="M27880 8330 c-58 -12 -241 -46 -350 -64 -19 -4 -46 -8 -60 -11 -14
-3 -41 -7 -60 -10 -19 -3 -60 -10 -90 -15 -30 -5 -75 -12 -100 -15 -25 -3 -56
-7 -70 -10 -14 -2 -45 -7 -70 -10 -25 -3 -52 -8 -60 -10 -8 -2 -46 -7 -85 -11
-38 -3 -72 -8 -75 -9 -3 -2 -39 -6 -80 -10 -41 -4 -77 -8 -80 -10 -3 -2 -43
-6 -90 -10 -47 -4 -92 -8 -100 -10 -23 -4 -161 -18 -305 -30 -38 -3 -88 -8
-110 -10 -22 -2 -76 -7 -120 -10 -44 -3 -102 -8 -130 -10 -27 -2 -93 -7 -145
-10 -52 -3 -122 -8 -155 -10 -130 -9 -378 -22 -575 -30 -498 -19 -847 -29
-1510 -40 -157 -3 -429 -7 -605 -10 -536 -9 -1064 -22 -1260 -30 -60 -2 -173
-7 -250 -10 -77 -3 -169 -8 -205 -10 -36 -2 -128 -6 -205 -10 -77 -4 -156 -8
-175 -10 -19 -2 -89 -6 -155 -10 -66 -4 -136 -8 -155 -10 -19 -2 -78 -6 -130
-10 -52 -3 -106 -8 -120 -10 -14 -2 -63 -7 -110 -11 -47 -3 -96 -8 -110 -9
-14 -1 -59 -6 -100 -9 -41 -4 -86 -9 -100 -11 -14 -3 -47 -7 -75 -10 -27 -3
-66 -7 -85 -10 -19 -2 -73 -9 -120 -15 -107 -13 -364 -52 -495 -75 -469 -83
-1034 -234 -1385 -370 -19 -7 -80 -30 -135 -51 -456 -170 -1108 -497 -1590
-797 -97 -60 -252 -176 -280 -209 -42 -48 -104 -134 -125 -173 -12 -22 -30
-53 -41 -70 -10 -16 -22 -37 -25 -45 -4 -8 -14 -23 -22 -33 -8 -9 -13 -19 -11
-22 3 -2 67 14 143 35 75 22 181 51 234 65 182 49 367 97 382 100 8 1 35 8 60
15 25 7 52 13 61 15 8 2 44 10 80 19 35 8 96 23 134 31 39 9 78 18 88 21 9 2
27 6 40 9 35 8 132 29 137 30 52 12 68 16 85 19 11 2 74 15 140 29 66 14 136
28 155 31 19 3 46 8 60 11 14 3 36 8 50 10 14 2 36 6 50 9 68 13 158 29 185
32 17 2 53 8 80 14 28 5 66 12 85 15 19 3 46 7 60 10 14 2 45 7 70 10 25 3 52
8 60 10 8 2 40 7 70 10 30 3 66 8 80 10 14 3 45 7 69 10 23 3 55 7 70 9 27 5
91 13 166 21 25 3 64 7 88 10 95 11 198 21 302 30 44 4 96 9 115 10 19 2 85 6
145 10 61 4 126 8 145 10 274 25 1204 25 1580 0 30 -2 102 -7 160 -10 58 -3
121 -8 140 -10 19 -2 76 -7 125 -10 50 -4 106 -9 125 -10 19 -2 76 -7 125 -10
50 -4 92 -8 95 -10 3 -2 43 -6 90 -10 47 -3 96 -8 110 -10 24 -4 80 -10 170
-20 56 -6 134 -15 180 -21 19 -2 53 -6 75 -9 22 -2 99 -11 170 -20 72 -8 153
-18 180 -21 28 -3 57 -7 65 -9 8 -2 44 -7 80 -11 36 -3 76 -8 90 -9 41 -5 133
-15 170 -20 19 -2 71 -9 115 -14 44 -6 103 -13 130 -16 28 -3 66 -8 85 -10 19
-3 58 -7 85 -10 69 -8 125 -15 155 -20 14 -2 57 -7 95 -10 39 -3 84 -8 100
-10 17 -2 57 -6 90 -10 33 -3 76 -8 95 -10 19 -2 64 -7 100 -10 36 -3 88 -7
115 -10 118 -11 235 -20 360 -30 39 -3 97 -7 130 -10 570 -43 1489 -52 2070
-20 149 8 293 17 330 19 22 2 90 7 150 11 61 4 118 9 127 11 9 1 57 6 105 9
48 4 99 8 113 10 14 2 59 6 100 10 41 4 88 9 105 11 16 3 52 7 80 9 27 3 86
10 130 15 91 12 125 16 210 26 33 3 67 8 75 9 8 2 40 6 70 10 30 4 62 9 71 10
9 2 40 6 70 10 30 4 57 10 62 14 4 4 2 32 -4 62 -5 30 -12 65 -15 79 -3 14
-11 57 -19 95 -8 39 -16 84 -19 100 -7 36 -23 116 -65 324 -17 85 -33 166 -36
180 -6 31 -10 52 -30 151 -22 108 -25 122 -30 155 -3 17 -17 84 -30 150 -14
66 -26 131 -29 145 -2 14 -11 59 -20 100 -8 41 -18 89 -20 105 -3 17 -15 75
-26 130 -12 55 -24 111 -26 125 -12 65 -13 65 -84 50z"/>
<path d="M23744 5568 c-58 -77 -103 -142 -100 -146 8 -8 19 -9 122 -16 l87 -5
128 102 c70 56 126 103 125 105 -2 1 -60 24 -130 51 l-126 49 -106 -140z"/>
<path d="M1160 5300 c-350 -75 -561 -397 -494 -752 49 -257 238 -446 503 -503
83 -18 246 -13 321 10 81 25 205 89 264 137 95 78 96 61 -13 175 l-96 101 -58
-43 c-186 -140 -417 -119 -530 48 -127 187 -64 443 133 536 46 22 69 26 140
26 76 -1 92 -4 152 -34 37 -18 89 -55 116 -82 l49 -48 83 102 c46 56 88 108
93 115 14 17 -22 54 -103 107 -172 112 -363 148 -560 105z"/>
<path d="M2400 5305 c-309 -64 -514 -298 -525 -602 -12 -317 190 -578 507
-653 64 -15 108 -18 193 -15 123 4 136 6 219 35 261 89 434 321 439 583 2 108
-10 180 -39 255 -78 195 -227 324 -449 389 -69 20 -264 24 -345 8z m271 -285
c146 -54 232 -193 224 -365 -5 -106 -38 -180 -111 -251 -67 -66 -124 -88 -224
-89 -71 0 -94 4 -140 26 -95 45 -155 114 -190 218 -65 195 35 400 228 467 52
17 156 14 213 -6z"/>
<path d="M17650 5313 c-207 -36 -368 -137 -469 -293 -70 -108 -100 -221 -96
-360 5 -139 43 -256 116 -355 103 -139 245 -228 424 -263 42 -9 242 -7 288 2
177 35 351 154 440 302 122 203 123 459 1 663 -83 139 -266 264 -434 296 -43
8 -236 14 -270 8z m253 -301 c26 -11 71 -45 100 -74 140 -140 139 -387 -3
-528 -169 -169 -442 -114 -548 110 -22 47 -26 69 -26 155 -1 89 2 106 26 155
70 143 177 210 328 206 52 -1 90 -9 123 -24z"/>
<path d="M21338 5309 c-32 -4 -91 -22 -133 -40 -141 -58 -223 -163 -233 -298
-11 -164 58 -276 213 -342 33 -15 126 -45 205 -69 80 -23 157 -48 172 -56 41
-21 68 -62 68 -104 0 -103 -160 -130 -352 -60 -81 30 -180 82 -230 122 -15 12
-30 20 -32 17 -2 -2 -32 -58 -65 -124 -71 -140 -75 -126 54 -200 79 -45 217
-95 305 -112 53 -9 270 -9 320 2 54 10 160 55 200 83 19 14 52 46 73 71 103
126 96 341 -14 450 -66 65 -131 96 -329 156 -199 61 -258 102 -246 171 7 36
23 52 65 64 85 24 212 -2 375 -75 55 -25 100 -44 101 -42 27 44 115 249 110
257 -14 23 -199 100 -271 114 -16 2 -40 8 -54 11 -42 10 -242 13 -302 4z"/>
<path d="M23708 5315 c-2 -1 -26 -5 -54 -9 -65 -7 -174 -48 -244 -92 -191
-117 -300 -319 -295 -544 3 -109 11 -150 42 -230 83 -208 262 -351 498 -398
42 -9 242 -7 288 2 120 23 247 89 336 173 302 287 248 787 -107 1000 -119 71
-231 101 -384 101 -42 0 -78 -1 -80 -3z m188 -291 c95 -27 184 -113 218 -211
65 -185 -14 -394 -179 -473 -68 -32 -176 -37 -249 -10 -238 90 -314 402 -143
596 83 95 227 135 353 98z"/>
<path d="M28265 5313 c-66 -9 -173 -48 -224 -81 -110 -73 -165 -179 -160 -309
3 -72 14 -113 43 -158 63 -96 156 -145 411 -215 132 -36 174 -59 199 -108 18
-36 2 -87 -37 -116 -25 -18 -42 -21 -125 -20 -83 0 -109 5 -180 32 -89 33
-188 86 -236 125 l-30 24 -62 -126 -63 -126 27 -23 c75 -64 267 -146 392 -168
59 -11 253 -11 309 -1 174 32 310 141 346 276 18 70 12 177 -14 237 -25 58
-95 130 -161 166 -25 14 -92 39 -150 57 -180 56 -224 72 -266 97 -70 39 -80
119 -21 155 25 15 46 18 112 15 90 -4 178 -29 304 -87 46 -22 85 -38 86 -37 1
4 63 132 93 196 l26 55 -22 17 c-42 34 -189 88 -314 116 -31 7 -246 12 -283 7z"/>
<path d="M3403 4675 l0 -635 146 0 146 0 0 395 c0 217 2 395 5 395 3 0 11 -12
17 -27 11 -27 68 -146 226 -475 l76 -158 109 0 108 0 19 42 c17 39 43 94 214
451 33 70 61 132 61 136 0 5 6 13 13 19 10 9 12 -66 12 -384 l0 -394 146 0
146 0 0 635 0 635 -178 0 -178 0 -132 -267 c-72 -148 -154 -315 -182 -373
l-50 -105 -184 373 -183 372 -178 0 -179 0 0 -635z"/>
<path d="M5084 4675 l0 -635 164 2 164 3 -1 173 -1 172 147 1 c82 0 159 2 173
5 64 11 77 13 98 18 50 11 129 55 178 99 91 82 136 198 136 350 1 184 -78 320
-225 390 -104 49 -164 55 -511 57 l-322 1 0 -636z m638 356 c50 -22 71 -43 93
-94 29 -70 14 -178 -33 -230 -38 -43 -95 -57 -238 -57 l-134 0 0 200 1 200
134 0 c108 0 142 -4 177 -19z"/>
<path d="M6549 5138 c-40 -95 -74 -175 -74 -178 0 -3 -3 -9 -7 -15 -3 -5 -31
-71 -63 -145 -31 -74 -63 -148 -70 -165 -8 -16 -26 -59 -40 -95 -15 -36 -35
-83 -45 -105 -10 -22 -43 -101 -75 -175 -31 -74 -65 -153 -75 -175 l-18 -40
166 -3 c91 -1 169 1 172 5 4 5 24 54 46 110 31 82 43 103 59 104 23 1 492 1
515 0 10 -1 29 -37 54 -103 21 -57 42 -106 46 -111 3 -4 83 -6 177 -5 l171 3
-39 95 c-22 52 -43 104 -49 115 -5 11 -48 115 -95 230 -48 116 -93 224 -100
240 -7 17 -30 71 -50 120 -20 50 -43 104 -50 120 -8 17 -43 100 -78 185 l-64
155 -170 3 -169 2 -75 -172z m325 -408 c42 -107 76 -198 76 -202 0 -4 -76 -8
-170 -8 -93 0 -170 2 -170 5 0 3 33 89 74 192 41 104 80 202 86 218 11 27 13
28 20 10 4 -11 42 -108 84 -215z"/>
<path d="M7604 4675 l0 -635 163 0 163 0 1 88 c0 48 0 127 -1 175 l-1 88 126
-3 126 -3 89 -170 88 -170 187 -3 c176 -2 185 -1 176 15 -6 10 -64 101 -130
203 l-119 185 21 18 c12 9 38 30 58 47 88 71 142 204 142 349 0 189 -76 317
-230 392 -105 50 -173 58 -534 59 l-325 0 0 -635z m683 352 c97 -52 126 -211
56 -305 -43 -58 -73 -67 -251 -70 l-162 -4 0 202 1 202 162 -4 c130 -2 168 -7
194 -21z"/>
<path d="M8795 5178 l0 -133 188 -3 187 -2 0 -500 0 -500 163 0 164 0 0 498 0
497 189 5 189 5 0 132 0 133 -540 0 -541 0 1 -132z"/>
<path d="M10004 4675 l0 -635 163 0 163 0 0 45 c0 25 1 299 1 610 0 311 -1
576 -1 590 l0 25 -163 0 -163 0 0 -635z"/>
<path d="M10583 4675 l0 -635 432 0 431 0 1 140 1 140 -269 0 -269 0 0 495 0
495 -163 0 -164 0 0 -635z"/>
<path d="M11593 4675 l0 -635 163 0 c149 0 164 2 165 18 0 9 1 119 1 245 l0
227 254 0 254 0 0 -245 0 -245 165 0 165 0 0 635 0 635 -165 0 -165 0 0 -260
0 -260 -252 2 -253 3 -2 235 c-1 129 -2 245 -2 258 -1 22 -2 22 -164 22 l-164
0 0 -635z"/>
<path d="M13370 5208 c-24 -57 -52 -123 -63 -148 -11 -25 -112 -261 -224 -525
-113 -264 -207 -483 -210 -487 -2 -5 72 -8 165 -8 l168 0 21 48 c12 26 31 75
44 110 18 47 29 62 44 63 70 3 526 1 529 -2 1 -2 21 -51 43 -109 l40 -105 176
-3 176 -2 -59 142 c-32 79 -151 364 -263 633 l-204 490 -170 3 -170 2 -43
-102z m314 -526 c31 -78 56 -147 56 -152 0 -6 -64 -10 -170 -10 -93 0 -170 2
-170 5 0 5 52 141 79 205 11 25 29 70 41 100 11 30 25 64 30 75 4 11 11 29 15
40 7 22 9 17 119 -263z"/>
<path d="M14394 4675 l0 -635 153 0 153 0 2 377 3 376 150 -199 c82 -109 155
-206 162 -214 7 -8 67 -88 134 -177 l121 -163 144 0 144 0 0 635 0 635 -149 0
c-110 0 -150 -3 -153 -12 -3 -7 -4 -179 -3 -382 l1 -369 -23 29 c-12 16 -141
187 -285 381 l-263 352 -146 1 -145 0 0 -635z"/>
<path d="M15804 4676 l-1 -637 312 1 c269 1 323 4 400 21 266 58 443 235 493
494 12 60 5 230 -13 295 -45 174 -164 317 -325 392 -121 57 -148 60 -521 65
l-345 5 0 -636z m681 334 c115 -56 182 -162 192 -307 10 -144 -38 -262 -134
-333 -67 -49 -106 -58 -266 -59 l-147 -2 0 367 0 366 153 -4 c135 -4 157 -7
202 -28z"/>
<path d="M19004 4675 l-1 -635 164 0 163 0 0 88 c1 48 1 158 0 245 l-1 157
256 0 255 0 0 -245 0 -245 165 0 165 0 0 635 0 635 -165 0 -165 0 0 -260 0
-260 -255 0 -256 0 1 193 c0 105 1 222 0 260 l0 67 -163 0 -163 0 0 -635z"/>
<path d="M20417 5303 c-2 -5 -4 -290 -4 -635 l0 -628 164 0 163 0 0 78 c1 87
1 1135 0 1170 0 22 -1 22 -159 22 -88 0 -162 -3 -164 -7z"/>
<path d="M22044 5175 l0 -135 188 0 189 0 -1 -477 c-1 -263 -1 -488 -1 -500 1
-23 2 -23 165 -23 l163 0 0 498 0 497 189 5 189 5 0 130 0 130 -541 3 -541 2
1 -135z"/>
<path d="M24638 5303 c-1 -5 -2 -290 -3 -636 l-1 -627 164 2 165 3 0 173 -1
172 123 0 124 0 42 -82 c59 -118 131 -252 139 -261 3 -4 88 -6 188 -5 l181 3
-62 97 c-34 54 -92 145 -129 203 l-67 105 44 30 c107 73 171 199 178 350 13
248 -126 422 -372 466 -83 14 -710 20 -713 7z m668 -272 c43 -19 86 -68 99
-110 13 -42 6 -120 -13 -164 -40 -89 -86 -106 -284 -107 l-146 0 0 200 1 200
151 0 c126 0 158 -4 192 -19z"/>
<path d="M25933 4675 l0 -635 164 0 163 0 0 43 c1 48 1 1018 0 1145 l0 82
-163 0 -164 0 0 -635z"/>
<path d="M26865 5173 c-32 -76 -69 -161 -81 -188 -12 -28 -32 -75 -44 -104
-11 -30 -29 -73 -40 -95 -10 -23 -80 -185 -155 -361 -76 -176 -144 -335 -151
-353 l-14 -32 170 2 171 3 41 105 c22 58 42 107 44 109 3 3 124 5 270 5 198 1
268 -2 276 -11 5 -7 27 -56 48 -110 l38 -98 176 -3 176 -2 -9 22 c-14 37 -191
461 -201 483 -10 20 -134 317 -215 515 -24 58 -57 137 -73 175 l-29 70 -170 3
-170 2 -58 -137z m309 -442 c42 -107 76 -198 76 -203 0 -4 -76 -8 -170 -8 -93
0 -170 3 -170 6 0 3 33 89 74 192 41 103 80 201 86 217 11 27 13 28 20 10 5
-11 42 -107 84 -214z"/>
</g>
</svg>
